<svg xmlns="http://www.w3.org/2000/svg" width="476" height="366" viewBox="0 0 476 366">
    <g fill="none" fill-rule="evenodd">
        <path fill="#B18F4A" d="M184.139 137c.006-11.974 9.714-21.678 21.688-21.678l21.306-.077a21.663 21.663 0 0 1 21.659 21.676v20.738c-.004 11.977-9.715 21.683-21.692 21.681l-21.408.078c-11.927-.063-21.56-9.751-21.556-21.678V137h.003z"/>
        <path fill="#090102" fill-rule="nonzero" d="M459.956 8.574a6.262 6.262 0 1 0 12.524 0 6.262 6.262 0 0 0-12.524 0zm-1.023 0a7.285 7.285 0 1 1 14.57 0 7.285 7.285 0 0 1-14.57 0zm3.865 3.6V4.98h4.324c1.7 0 2.931.385 2.931 2.147a2.036 2.036 0 0 1-2.01 2.118l2.207 2.929h-1.731l-2.089-2.83h-2.23v2.83h-1.402zm1.405-4h2.712c1.148 0 1.731-.167 1.731-1.019 0-.852-.583-1.009-1.731-1.009H464.2v2.028h.003zM336.4 136.564a58.033 58.033 0 0 1 58.019-58.089l44.078-.007v30.472l-42.9.007a28.888 28.888 0 0 0-28.888 28.889v20.74c0 15.974 12.948 29.313 28.883 29.313l20.618-.138c16.019.025 29.062-12.87 29.217-28.889l.031-98.191c0-15.954-12.932-28.888-28.886-28.889h-3.286v-30.4l4.456-.075c32.047.001 58.026 25.98 58.029 58.026l.122 100.7c0 32.054-26.31 58.028-58.348 58.028h-13.27l-53.319.379c-32.047-.001-58.026-25.981-58.025-58.028l.06-100.818a28.889 28.889 0 0 0-28.888-28.89h-3.286V.304l4.456-.074c32.048.001 58.028 25.98 58.03 58.029l-.06 100.818a28.9 28.9 0 0 0 19.144 27.206 57.8 57.8 0 0 1-6.265-26.258l.278-23.461zm-130.678 50.48l21.4-.077C243.072 186.962 256 174.03 256 158.08v-20.737a28.884 28.884 0 0 0-28.882-28.889l-21.307.077c-15.953.002-28.884 12.935-28.883 28.888v20.738c-.004 15.918 12.873 28.838 28.791 28.888l.003-.001zM228.3 77.984a58.035 58.035 0 0 1 58.016 58.093v23.335a58.018 58.018 0 0 1-58.016 58.025l-23.663.077a58.02 58.02 0 0 1-58.018-58.023v-23.339c-.023-31.214 24.64-56.858 55.831-58.052l25.85-.116zm-88.6 58.564l.3 100.7c-.001 32.045-25.977 58.023-58.022 58.026l-4.455-.075V264.8H80.8a28.884 28.884 0 0 0 28.882-28.887l-.062-98.185a28.879 28.879 0 0 0-28.875-28.889l-20.615.287c-15.954.001-28.887 12.934-28.889 28.888v20.738a28.885 28.885 0 0 0 28.882 28.888h42.806v30.47H58.593A58.034 58.034 0 0 1 .58 160.016l.078-23.47a58.032 58.032 0 0 1 58.08-58.022h23.333a57.685 57.685 0 0 1 57.629 58.024zM199.292 312.77c-4.865 0-7.961-1.155-11.31-4.3l4.107-4.173a8.932 8.932 0 0 0 6.95 2.889c5.434 0 7.519-3.916 7.519-8.281v-4.173a9.81 9.81 0 0 1-8.277 3.724 10.514 10.514 0 0 1-7.645-2.889c-3.1-3.144-3.6-7.7-3.6-13.223 0-5.523.505-10.079 3.6-13.224a10.636 10.636 0 0 1 7.709-2.824 9.751 9.751 0 0 1 8.4 3.852v-3.468H213v32.353c0 7.96-5.178 13.737-13.708 13.737zm.758-40.634c-5.813 0-6.571 5.072-6.571 10.208s.758 10.206 6.571 10.206 6.508-5.071 6.508-10.206-.695-10.208-6.508-10.208zM245.287 295.759a12.861 12.861 0 0 1-9.6 3.853 12.71 12.71 0 0 1-9.541-3.853c-3.033-3.209-3.791-7.317-3.791-12.839 0-5.455.758-9.564 3.791-12.774a12.714 12.714 0 0 1 9.541-3.852 12.866 12.866 0 0 1 9.6 3.852c3.033 3.21 3.791 7.319 3.791 12.774 0 5.521-.758 9.63-3.791 12.839zM240.421 274a6.476 6.476 0 0 0-4.739-1.862 6.33 6.33 0 0 0-4.675 1.862c-1.959 1.991-2.211 5.392-2.211 8.922 0 3.53.253 6.934 2.211 8.924a6.379 6.379 0 0 0 4.676 1.925 6.525 6.525 0 0 0 4.739-1.925c1.959-1.99 2.211-5.392 2.211-8.924 0-3.532-.253-6.933-2.212-8.922z"/>
        <path fill="#090102" d="M267.018 299.226c-6.129 0-8.783-4.173-8.783-8.987V253.52h6.445v36.334c0 2.5.885 3.787 3.475 3.787H271v5.584h-3.981l-.001.001z"/>
        <path fill="#090102" fill-rule="nonzero" d="M297.091 299.226v-3.467c-2.4 2.954-4.992 3.853-8.467 3.853a10.985 10.985 0 0 1-7.835-2.889c-3.222-3.274-3.6-8.859-3.6-13.8 0-4.941.379-10.463 3.6-13.737a10.826 10.826 0 0 1 7.772-2.889c3.412 0 6.066.835 8.4 3.659V253.52h6.445v45.705h-6.318l.003.001zm-6.761-27.09c-5.813 0-6.7 5.008-6.7 10.784 0 5.776.885 10.849 6.7 10.849s6.634-5.071 6.634-10.849c0-5.778-.82-10.784-6.633-10.784h-.001z"/>
        <path fill="#090102" d="M324.32 305.709a10.565 10.565 0 0 1-2.338 4.044 8.808 8.808 0 0 1-6.571 2.375h-2.591v-5.906h1.643c2.717 0 3.665-.835 4.612-3.467l1.769-5.071-11.184-31h6.824l7.646 22.916 7.456-22.916h6.887l-14.153 39.025z"/>
        <path fill="#090102" fill-rule="nonzero" d="M365.259 295.759a12.861 12.861 0 0 1-9.6 3.853 12.71 12.71 0 0 1-9.541-3.853c-3.033-3.209-3.791-7.317-3.791-12.839 0-5.455.758-9.564 3.791-12.774a12.714 12.714 0 0 1 9.541-3.852 12.866 12.866 0 0 1 9.6 3.852c3.033 3.21 3.791 7.319 3.791 12.774.001 5.521-.758 9.63-3.791 12.839zM360.394 274a6.476 6.476 0 0 0-4.739-1.862A6.33 6.33 0 0 0 350.98 274c-1.959 1.991-2.211 5.392-2.211 8.922 0 3.53.253 6.934 2.211 8.924a6.379 6.379 0 0 0 4.676 1.925 6.525 6.525 0 0 0 4.739-1.925c1.959-1.99 2.211-5.392 2.211-8.924 0-3.532-.253-6.933-2.212-8.922z"/>
        <path fill="#090102" d="M397.732 299.226v-3.273a11.374 11.374 0 0 1-8.53 3.659 11.01 11.01 0 0 1-7.9-2.954c-2.464-2.44-3.222-5.521-3.222-9.179v-20.8h6.445v19.835c0 5.072 2.843 7.254 6.445 7.254 3.602 0 6.634-2.246 6.634-7.254V266.68h6.445v32.545h-6.318l.001.001zM424.455 299.226c-6 0-8.783-4.365-8.783-9.052v-17.909h-3.665v-5.006h3.665v-9.886h6.445v9.886h6.192v5.006h-6.192v17.59c0 2.374 1.137 3.787 3.538 3.787h2.654v5.584h-3.854zM456.55 299.226v-19.964c0-4.943-2.843-7.126-6.445-7.126-3.602 0-6.508 2.248-6.508 7.126v19.964h-6.445V253.52h6.448v16.433a10.93 10.93 0 0 1 8.277-3.659c7.14 0 11.12 4.879 11.12 11.941v20.991h-6.447zM358.954 352.217v-7.831h7.709v7.831z"/>
        <path fill="#090102" fill-rule="nonzero" d="M398.759 348.75a12.861 12.861 0 0 1-9.6 3.853 12.71 12.71 0 0 1-9.541-3.853c-3.033-3.209-3.791-7.317-3.791-12.839 0-5.455.758-9.564 3.791-12.774a12.714 12.714 0 0 1 9.541-3.852 12.866 12.866 0 0 1 9.6 3.852c3.033 3.21 3.791 7.319 3.791 12.774 0 5.522-.758 9.63-3.791 12.839zm-4.865-21.761a6.476 6.476 0 0 0-4.739-1.862 6.33 6.33 0 0 0-4.676 1.862c-1.959 1.991-2.211 5.392-2.211 8.922 0 3.53.253 6.934 2.211 8.924a6.379 6.379 0 0 0 4.676 1.925 6.525 6.525 0 0 0 4.739-1.925c1.959-1.99 2.211-5.392 2.211-8.924 0-3.532-.252-6.931-2.211-8.922z"/>
        <path fill="#090102" d="M429.526 327.311a5.906 5.906 0 0 0-4.8-2.183c-3.475 0-6.382 2.826-6.382 7.319v19.771H411.9v-32.546h6.318v3.53a10.574 10.574 0 0 1 8.53-3.916 9.834 9.834 0 0 1 7.645 3.081l-4.867 4.944z"/>
        <path fill="#090102" fill-rule="nonzero" d="M448.97 365.762c-4.865 0-7.961-1.155-11.31-4.3l4.107-4.173a8.932 8.932 0 0 0 6.95 2.889c5.434 0 7.519-3.916 7.519-8.281v-4.173a9.81 9.81 0 0 1-8.277 3.724 10.514 10.514 0 0 1-7.645-2.889c-3.1-3.144-3.6-7.7-3.6-13.223 0-5.523.505-10.079 3.6-13.224a10.636 10.636 0 0 1 7.709-2.824 9.751 9.751 0 0 1 8.4 3.852v-3.466h6.255v32.353c.003 7.958-5.178 13.735-13.708 13.735zm.758-40.634c-5.813 0-6.571 5.072-6.571 10.208s.758 10.206 6.571 10.206 6.508-5.071 6.508-10.206-.695-10.209-6.508-10.209v.001z"/>
    </g>
</svg>
