<svg xmlns="http://www.w3.org/2000/svg" width="15" height="14" viewBox="0 0 15 14">
    <g fill="#B18F4A" fill-rule="evenodd">
        <path fill-rule="nonzero" d="M10.62 0H4.38C2.26 0 .535 1.733.535 3.863v6.274C.536 12.267 2.26 14 4.379 14h6.241c2.12 0 3.844-1.733 3.844-3.863V3.863C14.464 1.733 12.74 0 10.62 0zm2.609 10.137a2.618 2.618 0 0 1-2.608 2.62H4.379a2.618 2.618 0 0 1-2.607-2.62V3.863a2.618 2.618 0 0 1 2.607-2.62h6.241a2.618 2.618 0 0 1 2.608 2.62v6.274z"/>
        <path fill-rule="nonzero" d="M7.5 3.23C5.432 3.23 3.75 4.923 3.75 7c0 2.078 1.682 3.77 3.75 3.77S11.25 9.077 11.25 7c0-2.078-1.682-3.77-3.75-3.77zm0 6.241A2.468 2.468 0 0 1 5.041 7 2.468 2.468 0 0 1 7.5 4.529 2.468 2.468 0 0 1 9.959 7 2.468 2.468 0 0 1 7.5 9.471z"/>
        <path d="M11.25 2.154a1.073 1.073 0 0 0-1.071 1.077 1.077 1.077 0 0 0 1.071 1.077c.282 0 .558-.116.758-.316a1.084 1.084 0 0 0 0-1.523 1.073 1.073 0 0 0-.758-.315z"/>
    </g>
</svg>
