<svg xmlns="http://www.w3.org/2000/svg" width="13" height="14" viewBox="0 0 13 14">
    <path fill="#000" fill-rule="nonzero" d="M5.436 1.475c2.216 0 4.019 1.874 4.019 4.177 0 2.304-1.803 4.178-4.02 4.178-2.214 0-4.016-1.874-4.016-4.178 0-2.303 1.802-4.177 4.017-4.177m7.366 11.276L9.598 9.287a5.773 5.773 0 0 0 1.275-3.635C10.873 2.536 8.435 0 5.436 0 2.439 0 0 2.536 0 5.652c0 3.117 2.439 5.653 5.436 5.653a5.232 5.232 0 0 0 3.115-1.024l3.23 3.492a.688.688 0 0 0 1.001.02.758.758 0 0 0 .02-1.042"/>
</svg>
