<svg xmlns="http://www.w3.org/2000/svg" width="17" height="14" viewBox="0 0 17 14">
    <path fill="#B18F4A" fill-rule="evenodd" d="M17 2.067a7.34 7.34 0 0 1-2.002.514A3.326 3.326 0 0 0 16.53.777a7.33 7.33 0 0 1-2.216.792A3.592 3.592 0 0 0 11.77.54c-1.926 0-3.487 1.46-3.487 3.262 0 .256.03.505.09.744-2.898-.136-5.468-1.436-7.188-3.41a3.082 3.082 0 0 0-.471 1.64c0 1.133.616 2.132 1.55 2.716a3.671 3.671 0 0 1-1.579-.41v.042c0 1.58 1.203 2.9 2.797 3.2a3.76 3.76 0 0 1-.919.114 3.57 3.57 0 0 1-.656-.06c.444 1.297 1.731 2.24 3.257 2.266a7.307 7.307 0 0 1-4.331 1.395c-.282 0-.559-.016-.832-.045a10.354 10.354 0 0 0 5.346 1.469c6.415 0 9.921-4.973 9.921-9.286l-.011-.422A6.737 6.737 0 0 0 17 2.067z"/>
</svg>
