<svg xmlns="http://www.w3.org/2000/svg" width="19" height="14" viewBox="0 0 19 14">
    <path fill="#B18F4A" fill-rule="nonzero" d="M18.26 1.202C17.573.348 16.306 0 13.89 0H5.11C2.638 0 1.35.37.667 1.28 0 2.165 0 3.47 0 5.277v3.444C0 12.222.79 14 5.11 14h8.78c2.096 0 3.258-.307 4.01-1.06.771-.773 1.1-2.034 1.1-4.218V5.278c0-1.906-.052-3.219-.74-4.076zm-6.062 6.274l-3.986 2.18a.59.59 0 0 1-.602-.02.649.649 0 0 1-.295-.548V4.74c0-.225.112-.433.295-.549a.59.59 0 0 1 .6-.021l3.987 2.167c.202.11.33.33.33.569 0 .24-.126.459-.329.57z"/>
</svg>
